PathFileType  4	(X/Y/Z) C:\Users\antoi\Documents\MyRepositories\mobilecap\ResultsAnalysis
DataRate	CameraRate	NumFrames	NumMarkers	Units	OrigDataRate	OrigDataStartFrame	OrigNumFrames
100.0	100.0	6	51	mm	100.0	255	291
Frame#	Time	r_knee			r_shank_antsup			r_ankle			r_calc			r_5meta			r_toe			L_knee			L_shank_antsup			L_ankle			L_calc			L_5meta			L_toe			r_sh2			r_sh3			r_sh4			L_sh2			L_sh3			r_thigh1			r_thigh2			r_thigh3			r_thigh4			r_thigh5			L_thigh1			L_thigh2			L_thigh3			L_thigh4			r.ASIS			r.PSIS			L.ASIS			L.PSIS			C7			R_Shoulder			L_Shoulder			R_Sternum			L_Sternum			R_humerus			R_elbow_med			R_elbow_lat			R_forearm			R_wrist_radius			R_wrist_ulna			L_humerus			L_elbow_med			L_elbow_lat			L_forearm			L_wrist_radius			L_wrist_ulna			R_HJC			L_HJC			R_HJC_reg			L_HJC_reg			
		X1	Y1	Z1	X2	Y2	Z2	X3	Y3	Z3	X4	Y4	Z4	X5	Y5	Z5	X6	Y6	Z6	X7	Y7	Z7	X8	Y8	Z8	X9	Y9	Z9	X10	Y10	Z10	X11	Y11	Z11	X12	Y12	Z12	X13	Y13	Z13	X14	Y14	Z14	X15	Y15	Z15	X16	Y16	Z16	X17	Y17	Z17	X18	Y18	Z18	X19	Y19	Z19	X20	Y20	Z20	X21	Y21	Z21	X22	Y22	Z22	X23	Y23	Z23	X24	Y24	Z24	X25	Y25	Z25	X26	Y26	Z26	X27	Y27	Z27	X28	Y28	Z28	X29	Y29	Z29	X30	Y30	Z30	X31	Y31	Z31	X32	Y32	Z32	X33	Y33	Z33	X34	Y34	Z34	X35	Y35	Z35	X36	Y36	Z36	X37	Y37	Z37	X38	Y38	Z38	X39	Y39	Z39	X40	Y40	Z40	X41	Y41	Z41	X42	Y42	Z42	X43	Y43	Z43	X44	Y44	Z44	X45	Y45	Z45	X46	Y46	Z46	X47	Y47	Z47	X48	Y48	Z48	X49	Y49	Z49	X50	Y50	Z50	X51	Y51	Z51	

255	2.54000000	-269.08250	695.71866	-391.48321	-230.03451	635.83266	-385.11092	-277.61807	302.97994	-397.12176	-323.17422	307.69049	-457.27328	-217.95637	202.46553	-362.00577	-158.09967	205.71700	-395.63676	-182.46974	751.12843	-755.45829	-136.29112	669.18626	-755.91161	-173.73290	367.36154	-842.02151	-243.69830	362.88588	-806.47124	-111.06081	254.41075	-841.84689	-61.89275	259.73289	-786.64980	-243.78879	524.01759	-373.79196	-303.12210	647.58580	-372.90082	-325.18052	530.35590	-370.59745	-209.81736	695.04394	-801.43177	-209.87764	577.65528	-839.33626	-247.38383	946.12913	-341.49497	-235.95051	834.00902	-356.69349	-294.98758	807.23461	-369.68920	-351.43579	939.14126	-384.31150	-334.75343	824.02402	-404.65144	-191.06284	1034.20723	-743.32549	-162.29062	897.60152	-746.41555	-300.52113	1013.58233	-747.53527	-275.06746	875.24183	-735.06203	-188.29840	1151.43577	-409.33200	-374.83052	1225.65100	-485.29823	-172.95350	1191.38865	-612.55414	-366.53772	1239.74105	-561.74551	-269.75903	1639.80009	-467.11631	-200.36204	1620.66639	-332.76118	-212.35323	1616.58998	-610.17130	-136.43442	1593.62200	-450.71108	-142.15069	1590.41173	-490.67334	-164.16859	1550.69413	-242.12224	-238.42669	1376.72785	-125.99641	-200.02410	1418.16372	-86.70225	-112.77989	1379.96387	-71.98739	-12.12865	1284.05609	-44.35755	-26.51469	1279.12767	-10.13513	-219.12390	1534.11230	-697.48777	-302.05405	1326.32398	-741.50125	-276.90224	1363.50947	-795.94765	-189.30472	1300.79842	-821.24878	-100.88975	1210.71204	-824.98410	-127.08738	1191.13927	-849.54906	-279.49795	1079.96270	-432.26095	-259.22762	1120.63817	-634.73044	-264.94192	1106.90239	-454.43049	-250.40220	1131.60658	-588.46743	
256	2.55000000	-267.53957	681.43105	-388.55778	-228.85411	621.50805	-382.25910	-279.92669	288.91287	-393.90229	-326.29044	293.31776	-453.49057	-219.77841	188.68492	-358.92989	-160.31615	191.91500	-393.15900	-180.88263	738.38481	-756.70333	-135.01135	656.31697	-758.46009	-175.92106	355.18222	-844.69646	-245.87775	348.95076	-808.82339	-111.26542	243.97165	-846.84777	-61.91960	249.32661	-791.48648	-243.64338	509.73423	-370.80325	-302.41513	634.09222	-369.52914	-324.98702	517.07627	-367.51210	-208.90373	683.05011	-803.11537	-210.60438	565.57659	-840.93298	-247.75696	932.52426	-340.46702	-235.23151	820.52111	-354.90454	-293.99189	792.94294	-367.13814	-352.38982	923.84987	-382.07881	-334.40131	809.01389	-401.80533	-193.86421	1021.50825	-742.52759	-162.77070	885.65517	-747.09722	-303.27606	999.13005	-747.14534	-275.14504	861.12617	-735.84802	-190.35869	1136.64301	-408.73136	-377.22039	1211.24443	-482.98911	-176.36963	1177.11309	-611.85709	-369.65619	1225.15479	-559.76275	-273.88471	1625.43730	-465.62819	-204.16048	1606.95898	-331.65456	-216.86454	1602.55277	-608.71511	-140.19965	1580.39779	-446.68621	-145.67814	1576.71448	-489.67567	-166.95734	1539.33684	-240.47987	-236.25073	1365.19387	-121.85821	-198.72839	1407.66394	-83.50651	-110.62434	1371.34931	-67.96311	-7.74949	1277.79297	-38.28853	-22.61480	1272.70164	-4.85570	-222.89790	1519.81173	-695.50756	-301.48477	1310.06410	-737.66129	-277.11507	1347.07688	-792.41060	-187.18561	1286.20433	-815.82013	-96.16378	1198.60885	-816.55856	-121.40506	1177.98304	-841.14517	-281.66164	1065.27639	-431.08592	-262.83116	1106.35864	-633.61208	-267.27820	1092.81930	-452.77017	-254.05654	1117.13207	-586.95473	
257	2.56000000	-265.86431	666.06224	-385.76515	-227.55143	606.41132	-379.32415	-281.63856	273.79562	-390.76673	-329.02844	278.50072	-449.55411	-221.20174	173.28503	-357.01855	-162.20470	176.65536	-392.15057	-178.76012	724.90061	-758.34809	-133.74055	642.80082	-761.14051	-178.92717	342.39403	-847.10522	-248.58394	334.00009	-810.27482	-112.18693	232.95982	-851.79794	-62.40593	238.30323	-796.76782	-243.21855	494.66126	-368.01000	-301.33425	619.73064	-366.02988	-324.47328	502.75320	-364.43879	-208.02961	670.36324	-804.48036	-211.60027	552.93639	-842.57186	-248.11604	917.98985	-339.27433	-234.20527	806.04680	-353.12137	-292.74905	777.59173	-364.49881	-353.24631	907.44293	-379.35963	-333.79167	792.98480	-398.58532	-196.49334	1007.78256	-741.35994	-162.86563	872.77821	-747.53020	-305.73163	983.28493	-746.65037	-274.78237	846.00996	-736.66129	-193.46402	1120.82419	-407.99773	-379.93402	1195.87129	-480.73759	-179.48214	1161.57096	-610.97775	-373.05250	1209.55687	-557.99255	-277.77486	1609.90905	-464.26614	-208.21966	1592.12423	-330.74144	-221.26380	1587.29080	-607.22425	-144.48983	1565.53520	-442.60195	-148.90830	1561.97729	-488.70090	-169.76468	1526.87529	-238.93053	-233.77563	1352.65478	-117.87880	-197.29483	1396.29720	-80.21434	-108.40837	1362.10671	-63.82907	-3.58146	1270.70938	-32.35096	-18.58669	1265.86114	0.74981	-226.66468	1504.53813	-693.87359	-300.55222	1292.83054	-734.47611	-276.84393	1329.87139	-789.60128	-184.64731	1271.31810	-811.07575	-90.84565	1186.63992	-808.96825	-114.96859	1164.98270	-833.71028	-284.57026	1049.54997	-429.87800	-266.49613	1090.96241	-632.40764	-270.08555	1077.76647	-450.92129	-258.11940	1101.56384	-585.25674	
258	2.57000000	-264.08542	649.94126	-383.02964	-226.11679	590.44659	-376.51487	-282.75464	257.68162	-387.94399	-331.37277	263.06700	-445.48074	-222.16033	156.52670	-356.09680	-163.80319	160.11291	-392.49447	-176.10915	710.79851	-760.10396	-132.34555	628.59760	-763.74568	-182.67882	328.84825	-849.11509	-251.73010	318.42810	-810.85698	-114.00390	221.18236	-856.57349	-63.43732	226.69161	-802.57822	-242.60293	478.65394	-365.46591	-300.11571	604.20179	-362.20444	-323.71735	487.48330	-361.37715	-206.99876	657.11057	-805.63545	-212.76389	539.68728	-843.85445	-248.56985	902.55944	-337.96762	-233.03672	790.46743	-351.35343	-291.49550	761.20252	-361.81786	-354.01303	890.13586	-376.26568	-333.03498	775.91338	-395.33796	-199.10591	993.14876	-740.56192	-162.70318	858.95013	-747.79954	-307.76813	966.43559	-746.57706	-273.98310	829.93939	-737.48845	-197.15856	1104.08270	-407.42810	-382.94998	1179.50107	-478.67335	-182.75438	1144.90713	-610.18543	-376.64102	1193.05254	-556.30234	-281.46261	1593.24167	-463.00066	-212.40311	1576.11500	-329.93356	-225.32287	1570.85115	-605.64448	-148.39584	1549.39980	-441.56690	-152.24051	1546.19775	-487.55342	-172.56916	1513.23497	-237.48612	-230.78532	1338.98150	-114.13696	-195.66797	1384.00400	-76.99614	-106.07759	1352.16383	-59.64065	0.60376	1263.17308	-26.50073	-14.32752	1258.59197	6.59371	-230.15796	1488.09423	-692.31608	-298.96534	1274.74277	-732.09865	-275.88601	1311.92534	-787.53957	-181.58246	1256.08979	-806.96648	-84.77955	1174.58010	-802.40242	-107.61735	1151.88390	-827.20094	-287.93738	1032.85670	-428.77602	-270.43614	1074.54298	-631.30037	-273.29758	1061.60561	-449.44947	-262.37741	1085.06144	-583.81550	
259	2.58000000	-262.12524	633.16014	-380.24742	-224.40322	573.46785	-374.07362	-283.19702	240.64986	-385.59388	-333.31139	246.94376	-441.44377	-222.65731	138.89439	-355.72608	-165.18287	142.57853	-393.54520	-173.18231	695.86924	-761.06458	-130.68606	613.48639	-766.14890	-187.26218	314.55142	-850.74217	-255.34649	302.35756	-810.74519	-116.88737	208.72439	-861.49312	-65.16622	214.51661	-808.87570	-241.70999	461.71136	-363.05551	-299.16813	587.53165	-358.54511	-322.65099	471.29993	-358.26130	-205.69639	643.18276	-806.64963	-213.96957	525.80069	-844.66761	-249.03781	886.06581	-336.64005	-231.97055	773.93272	-349.37976	-290.28348	743.89258	-358.97996	-354.76543	871.96549	-373.10368	-332.39265	757.85011	-391.99720	-201.75112	977.59773	-740.20936	-162.33779	844.26744	-748.04603	-309.62557	948.67241	-746.81481	-272.79055	812.84712	-738.25300	-200.54410	1086.61742	-407.01726	-386.26842	1162.08133	-476.85238	-187.53861	1127.51907	-609.85963	-380.52837	1175.46383	-554.73279	-284.95368	1575.57150	-461.70196	-216.32900	1559.06278	-328.94324	-229.03549	1553.27624	-604.03000	-151.84666	1532.35566	-440.85822	-155.71865	1529.21810	-486.27224	-175.31660	1498.47291	-235.98997	-227.48719	1324.34493	-110.20488	-193.78715	1370.77524	-73.89235	-103.53922	1341.55288	-55.48956	4.74518	1255.16367	-21.03446	-9.81756	1250.96072	12.47213	-233.14265	1470.47433	-690.69310	-296.49722	1255.92792	-730.67931	-274.20426	1293.26860	-786.16689	-177.83864	1240.52822	-803.72411	-77.94904	1162.45102	-796.75860	-99.36726	1138.61989	-821.49553	-291.24667	1015.39130	-427.72936	-275.14149	1057.07232	-630.36436	-276.92511	1044.44935	-448.27177	-267.01114	1067.56334	-582.78806	
260	2.59000000	-259.96796	615.44800	-377.56014	-222.17606	555.39594	-372.11597	-283.59545	222.82896	-383.74932	-335.23102	229.96465	-437.86226	-223.04265	120.80526	-355.51019	-166.51634	124.39655	-394.57247	-170.00394	680.09550	-761.38613	-128.66006	597.41036	-768.56124	-192.55251	299.66350	-852.22767	-259.42288	285.75582	-810.27803	-120.78084	195.76279	-866.68526	-67.67647	201.67378	-815.38153	-240.19013	443.94917	-360.74838	-297.29149	569.46914	-356.05860	-320.89720	454.14350	-354.82683	-204.04163	628.42678	-807.53184	-215.00752	511.26257	-845.28117	-249.45891	868.38882	-335.33775	-231.16493	756.59372	-347.19028	-289.07135	725.63850	-356.08462	-355.60926	852.72077	-370.04068	-331.98758	738.82634	-388.40458	-204.39577	961.10784	-739.71751	-161.74423	828.85685	-748.31671	-311.54803	929.68165	-746.65997	-271.39096	794.62388	-738.75757	-203.69110	1068.41163	-406.50894	-389.98826	1143.54701	-475.18159	-193.72852	1109.48715	-609.82375	-384.86602	1156.68348	-553.25931	-288.22412	1556.96563	-460.27103	-219.91292	1541.07035	-327.76780	-232.49134	1534.60834	-602.36816	-155.18691	1514.19065	-439.11875	-159.12329	1510.92287	-484.90588	-177.94316	1482.65368	-234.40770	-224.08777	1308.96300	-105.95545	-191.60770	1356.64675	-70.83272	-100.71611	1330.33000	-51.46961	9.00300	1246.69213	-15.93373	-5.03164	1243.09488	18.15903	-235.51922	1451.89646	-689.32538	-293.29550	1236.30433	-730.44125	-271.77041	1274.02353	-785.51171	-173.26399	1224.71576	-801.37056	-70.53881	1150.50888	-791.78232	-90.44495	1125.46260	-816.54339	-294.52310	997.10898	-426.62835	-280.49802	1038.55631	-629.46620	-280.93205	1026.32309	-447.03819	-272.08383	1049.01714	-581.92138	
